<mxfile host="app.diagrams.net" modified="2023-05-22T11:00:55.668Z" agent="Mozilla/5.0 (Windows NT 10.0; Win64; x64) AppleWebKit/537.36 (KHTML, like Gecko) Chrome/113.0.0.0 Safari/537.36" etag="dINsL5chBHYzpRgSSiyA" version="21.2.9" type="device">
  <diagram name="Sayfa -1" id="P2G3-NsJYTs9bJU3xhpn">
    <mxGraphModel dx="175" dy="92" grid="1" gridSize="10" guides="1" tooltips="1" connect="1" arrows="1" fold="1" page="1" pageScale="1" pageWidth="827" pageHeight="1169" math="0" shadow="0">
      <root>
        <mxCell id="0" />
        <mxCell id="1" parent="0" />
        <mxCell id="xpo2y4l-4NO9ecdlenUU-10" style="edgeStyle=orthogonalEdgeStyle;rounded=0;orthogonalLoop=1;jettySize=auto;html=1;entryX=-0.002;entryY=0.59;entryDx=0;entryDy=0;entryPerimeter=0;" edge="1" parent="1" source="xpo2y4l-4NO9ecdlenUU-1" target="xpo2y4l-4NO9ecdlenUU-5">
          <mxGeometry relative="1" as="geometry" />
        </mxCell>
        <mxCell id="xpo2y4l-4NO9ecdlenUU-1" value="&quot;1234&quot;" style="rounded=1;whiteSpace=wrap;html=1;fillColor=#fff2cc;strokeColor=#d6b656;fontStyle=1" vertex="1" parent="1">
          <mxGeometry x="270" y="199" width="120" height="60" as="geometry" />
        </mxCell>
        <mxCell id="xpo2y4l-4NO9ecdlenUU-4" value="&quot;$2a$12$DZObk&quot;" style="rounded=1;whiteSpace=wrap;html=1;fillColor=#dae8fc;strokeColor=#6c8ebf;fontStyle=1" vertex="1" parent="1">
          <mxGeometry x="580" y="199" width="120" height="60" as="geometry" />
        </mxCell>
        <mxCell id="xpo2y4l-4NO9ecdlenUU-5" value="BCrypt" style="ellipse;whiteSpace=wrap;html=1;aspect=fixed;fillColor=#e1d5e7;strokeColor=#9673a6;fontStyle=1" vertex="1" parent="1">
          <mxGeometry x="430" y="170" width="100" height="100" as="geometry" />
        </mxCell>
        <mxCell id="xpo2y4l-4NO9ecdlenUU-6" value="Kullanıcı parolası" style="text;html=1;strokeColor=none;fillColor=none;align=center;verticalAlign=middle;whiteSpace=wrap;rounded=0;fontStyle=1" vertex="1" parent="1">
          <mxGeometry x="275" y="166" width="110" height="30" as="geometry" />
        </mxCell>
        <mxCell id="xpo2y4l-4NO9ecdlenUU-7" value="Hash fonksiyonu uygulanmış parola" style="text;html=1;strokeColor=none;fillColor=none;align=center;verticalAlign=middle;whiteSpace=wrap;rounded=0;fontStyle=1" vertex="1" parent="1">
          <mxGeometry x="585" y="165" width="110" height="30" as="geometry" />
        </mxCell>
        <mxCell id="xpo2y4l-4NO9ecdlenUU-11" style="edgeStyle=orthogonalEdgeStyle;rounded=0;orthogonalLoop=1;jettySize=auto;html=1;entryX=0.008;entryY=0.538;entryDx=0;entryDy=0;entryPerimeter=0;" edge="1" parent="1" target="xpo2y4l-4NO9ecdlenUU-4">
          <mxGeometry relative="1" as="geometry">
            <mxPoint x="530" y="230.24" as="sourcePoint" />
            <mxPoint x="600" y="229.24" as="targetPoint" />
          </mxGeometry>
        </mxCell>
      </root>
    </mxGraphModel>
  </diagram>
</mxfile>
